G04 #@! TF.FileFunction,Copper,L1,Top,Signal*
%FSLAX46Y46*%
G04 Gerber Fmt 4.6, Leading zero omitted, Abs format (unit mm)*
G04 Created by KiCad (PCBNEW 4.0.7) date Sat Oct 28 14:53:49 2017*
%MOMM*%
%LPD*%
G01*
G04 APERTURE LIST*
%ADD10C,0.100000*%
%ADD11R,1.200000X0.900000*%
%ADD12R,1.500000X1.250000*%
%ADD13R,1.200000X0.750000*%
%ADD14R,1.000000X0.400000*%
%ADD15C,2.000000*%
%ADD16C,0.300000*%
%ADD17C,0.400000*%
%ADD18C,0.500000*%
G04 APERTURE END LIST*
D10*
D11*
X125600000Y-111000000D03*
X127800000Y-111000000D03*
X125600000Y-108500000D03*
X127800000Y-108500000D03*
X125600000Y-106000000D03*
X127800000Y-106000000D03*
X125600000Y-103500000D03*
X127800000Y-103500000D03*
X104100000Y-108500000D03*
X101900000Y-108500000D03*
X104100000Y-111000000D03*
X101900000Y-111000000D03*
X125600000Y-101000000D03*
X127800000Y-101000000D03*
X125600000Y-98500000D03*
X127800000Y-98500000D03*
X109100000Y-87000000D03*
X106900000Y-87000000D03*
X109000000Y-89500000D03*
X106800000Y-89500000D03*
X121900000Y-87000000D03*
X124100000Y-87000000D03*
X121900000Y-89500000D03*
X124100000Y-89500000D03*
X104100000Y-93500000D03*
X101900000Y-93500000D03*
X104100000Y-96000000D03*
X101900000Y-96000000D03*
X104100000Y-101000000D03*
X101900000Y-101000000D03*
X104100000Y-98500000D03*
X101900000Y-98500000D03*
X104100000Y-106000000D03*
X101900000Y-106000000D03*
X104100000Y-103500000D03*
X101900000Y-103500000D03*
X125600000Y-93500000D03*
X127800000Y-93500000D03*
X125600000Y-96000000D03*
X127800000Y-96000000D03*
X123600000Y-111000000D03*
X121400000Y-111000000D03*
X123600000Y-108500000D03*
X121400000Y-108500000D03*
X123600000Y-106000000D03*
X121400000Y-106000000D03*
X123600000Y-103500000D03*
X121400000Y-103500000D03*
X106400000Y-108500000D03*
X108600000Y-108500000D03*
X106400000Y-111000000D03*
X108600000Y-111000000D03*
X123600000Y-101000000D03*
X121400000Y-101000000D03*
X123600000Y-98500000D03*
X121400000Y-98500000D03*
X111900000Y-87000000D03*
X114100000Y-87000000D03*
X111900000Y-89500000D03*
X114100000Y-89500000D03*
X118900000Y-87000000D03*
X116700000Y-87000000D03*
X118900000Y-89500000D03*
X116700000Y-89500000D03*
X106400000Y-93500000D03*
X108600000Y-93500000D03*
X106400000Y-96000000D03*
X108600000Y-96000000D03*
X106400000Y-101000000D03*
X108600000Y-101000000D03*
X106400000Y-98500000D03*
X108600000Y-98500000D03*
X106400000Y-106000000D03*
X108600000Y-106000000D03*
X106400000Y-103500000D03*
X108600000Y-103500000D03*
X123600000Y-93500000D03*
X121400000Y-93500000D03*
X123600000Y-96000000D03*
X121400000Y-96000000D03*
D12*
X116450000Y-107500000D03*
X113950000Y-107500000D03*
D13*
X114650000Y-103900000D03*
X112750000Y-103900000D03*
D12*
X114650000Y-105500000D03*
X112150000Y-105500000D03*
D14*
X112100000Y-95075000D03*
X112100000Y-95725000D03*
X112100000Y-96375000D03*
X112100000Y-97025000D03*
X112100000Y-97675000D03*
X112100000Y-98325000D03*
X112100000Y-98975000D03*
X112100000Y-99625000D03*
X112100000Y-100275000D03*
X112100000Y-100925000D03*
X117900000Y-100925000D03*
X117900000Y-100275000D03*
X117900000Y-99625000D03*
X117900000Y-98975000D03*
X117900000Y-98325000D03*
X117900000Y-97675000D03*
X117900000Y-97025000D03*
X117900000Y-96375000D03*
X117900000Y-95725000D03*
X117900000Y-95075000D03*
D15*
X125500000Y-84400000D03*
X122500000Y-84300000D03*
X118200000Y-110300000D03*
X125600000Y-91300000D03*
D16*
X123600000Y-111000000D02*
X125600000Y-111000000D01*
D17*
X125600000Y-87000000D02*
X125600000Y-84500000D01*
X125600000Y-84500000D02*
X125500000Y-84400000D01*
X127800000Y-93500000D02*
X127800000Y-89100000D01*
X125700000Y-87000000D02*
X125600000Y-87000000D01*
X125600000Y-87000000D02*
X124100000Y-87000000D01*
X127800000Y-89100000D02*
X125700000Y-87000000D01*
X126700000Y-111000000D02*
X127800000Y-111000000D01*
X126700000Y-106000000D02*
X127800000Y-106000000D01*
X126700000Y-101000000D02*
X127800000Y-101000000D01*
X103000000Y-93600000D02*
X102000000Y-93600000D01*
X102000000Y-93600000D02*
X101900000Y-93500000D01*
X103000000Y-101000000D02*
X101900000Y-101000000D01*
X103000000Y-106000000D02*
X101900000Y-106000000D01*
X101900000Y-108500000D02*
X103000000Y-108500000D01*
X115200000Y-112600000D02*
X115200000Y-106050000D01*
X115200000Y-106050000D02*
X114650000Y-105500000D01*
X114650000Y-103900000D02*
X114650000Y-105500000D01*
X112050000Y-100275000D02*
X112975000Y-100275000D01*
X114650000Y-101950000D02*
X114650000Y-103900000D01*
X112975000Y-100275000D02*
X114650000Y-101950000D01*
X103000000Y-91800000D02*
X103800000Y-91000000D01*
X107700000Y-87000000D02*
X106900000Y-87000000D01*
X107900000Y-87200000D02*
X107700000Y-87000000D01*
X107900000Y-90300000D02*
X107900000Y-87200000D01*
X107200000Y-91000000D02*
X107900000Y-90300000D01*
X103800000Y-91000000D02*
X107200000Y-91000000D01*
X127800000Y-93500000D02*
X127800000Y-93600000D01*
X127800000Y-93600000D02*
X126700000Y-94700000D01*
X126700000Y-94700000D02*
X126700000Y-101000000D01*
X126700000Y-101000000D02*
X126700000Y-106000000D01*
X126700000Y-106000000D02*
X126700000Y-111000000D01*
X126700000Y-111000000D02*
X126700000Y-112200000D01*
X126700000Y-112200000D02*
X126300000Y-112600000D01*
X126300000Y-112600000D02*
X115200000Y-112600000D01*
X115200000Y-112600000D02*
X103500000Y-112600000D01*
X103500000Y-112600000D02*
X103000000Y-112100000D01*
X103000000Y-112100000D02*
X103000000Y-108500000D01*
X103000000Y-108500000D02*
X103000000Y-106000000D01*
X103000000Y-106000000D02*
X103000000Y-101000000D01*
X103000000Y-101000000D02*
X103000000Y-93600000D01*
X103000000Y-93600000D02*
X103000000Y-91800000D01*
D16*
X123600000Y-108500000D02*
X125600000Y-108500000D01*
D17*
X123000000Y-86200000D02*
X123000000Y-84800000D01*
X123000000Y-84800000D02*
X122500000Y-84300000D01*
X124100000Y-89500000D02*
X124100000Y-89300000D01*
X124100000Y-89300000D02*
X123000000Y-88200000D01*
X123000000Y-88200000D02*
X123000000Y-86200000D01*
X112050000Y-98975000D02*
X113325000Y-98975000D01*
X113000000Y-93500000D02*
X113000000Y-85200000D01*
X113900000Y-94400000D02*
X113000000Y-93500000D01*
X113900000Y-98400000D02*
X113900000Y-94400000D01*
X113325000Y-98975000D02*
X113900000Y-98400000D01*
X112150000Y-105500000D02*
X112150000Y-105700000D01*
X112150000Y-105700000D02*
X113950000Y-107500000D01*
X112750000Y-103900000D02*
X112750000Y-104900000D01*
X112750000Y-104900000D02*
X112150000Y-105500000D01*
X112050000Y-98975000D02*
X111025000Y-98975000D01*
X110700000Y-104150000D02*
X112150000Y-105500000D01*
X110700000Y-99200000D02*
X110700000Y-104150000D01*
X111025000Y-98975000D02*
X110700000Y-99200000D01*
D16*
X123600000Y-106000000D02*
X125600000Y-106000000D01*
X123600000Y-103500000D02*
X125600000Y-103500000D01*
X104100000Y-108500000D02*
X106400000Y-108500000D01*
X104100000Y-111000000D02*
X106400000Y-111000000D01*
X123600000Y-101000000D02*
X125600000Y-101000000D01*
X123600000Y-98500000D02*
X125600000Y-98500000D01*
X109100000Y-87000000D02*
X111900000Y-87000000D01*
X109000000Y-89500000D02*
X111900000Y-89500000D01*
X118900000Y-87000000D02*
X121900000Y-87000000D01*
X118900000Y-89500000D02*
X121900000Y-89500000D01*
X104100000Y-93500000D02*
X106400000Y-93500000D01*
X104100000Y-96000000D02*
X106400000Y-96000000D01*
X104100000Y-101000000D02*
X106400000Y-101000000D01*
X104100000Y-98500000D02*
X106400000Y-98500000D01*
X104100000Y-106000000D02*
X106400000Y-106000000D01*
X104100000Y-103500000D02*
X106400000Y-103500000D01*
X123600000Y-93500000D02*
X125600000Y-93500000D01*
X123600000Y-96000000D02*
X125600000Y-96000000D01*
X121400000Y-108500000D02*
X121400000Y-111000000D01*
X117950000Y-98975000D02*
X119375000Y-98975000D01*
X120200000Y-108500000D02*
X121400000Y-108500000D01*
X119500000Y-107800000D02*
X120200000Y-108500000D01*
X119500000Y-99100000D02*
X119500000Y-107800000D01*
X119375000Y-98975000D02*
X119500000Y-99100000D01*
X121400000Y-103500000D02*
X121400000Y-106000000D01*
X117950000Y-98325000D02*
X119725000Y-98325000D01*
X120500000Y-103500000D02*
X121400000Y-103500000D01*
X120200000Y-103200000D02*
X120500000Y-103500000D01*
X120200000Y-98800000D02*
X120200000Y-103200000D01*
X119725000Y-98325000D02*
X120200000Y-98800000D01*
X112050000Y-95725000D02*
X110875000Y-95725000D01*
X107500000Y-107300000D02*
X107500000Y-97600000D01*
X107500000Y-97600000D02*
X108000000Y-97100000D01*
X108000000Y-97100000D02*
X109500000Y-97100000D01*
X109500000Y-97100000D02*
X110800000Y-95800000D01*
X107500000Y-107300000D02*
X108600000Y-108400000D01*
X110875000Y-95725000D02*
X110800000Y-95800000D01*
X108600000Y-108500000D02*
X108600000Y-108400000D01*
X108600000Y-108500000D02*
X108600000Y-111000000D01*
X112025000Y-95700000D02*
X112050000Y-95725000D01*
X121400000Y-98500000D02*
X121400000Y-101000000D01*
X117950000Y-97675000D02*
X120575000Y-97675000D01*
X120575000Y-97675000D02*
X121400000Y-98500000D01*
X114100000Y-89500000D02*
X114100000Y-87000000D01*
X117950000Y-95725000D02*
X116425000Y-95725000D01*
X114100000Y-93400000D02*
X114100000Y-89500000D01*
X116425000Y-95725000D02*
X114100000Y-93400000D01*
X116700000Y-89500000D02*
X116700000Y-87000000D01*
X117950000Y-95075000D02*
X117950000Y-93350000D01*
X116700000Y-92100000D02*
X116700000Y-89500000D01*
X117950000Y-93350000D02*
X116700000Y-92100000D01*
X112050000Y-95075000D02*
X108600000Y-95075000D01*
X108600000Y-95075000D02*
X108600000Y-95100000D01*
X108600000Y-96000000D02*
X108600000Y-95100000D01*
X108600000Y-95100000D02*
X108600000Y-93500000D01*
X112050000Y-96375000D02*
X111125000Y-96375000D01*
X110400000Y-97100000D02*
X109000000Y-98500000D01*
X111125000Y-96375000D02*
X110400000Y-97100000D01*
X108600000Y-98500000D02*
X109000000Y-98500000D01*
X108600000Y-98500000D02*
X108600000Y-101000000D01*
X112050000Y-98325000D02*
X110575000Y-98325000D01*
X110575000Y-98325000D02*
X110000000Y-98900000D01*
X108600000Y-103500000D02*
X108600000Y-106000000D01*
X110000000Y-102100000D02*
X108600000Y-103500000D01*
X110000000Y-99600000D02*
X110000000Y-102100000D01*
X110000000Y-99600000D02*
X110000000Y-98900000D01*
X121400000Y-96000000D02*
X121400000Y-93500000D01*
X117950000Y-97025000D02*
X120975000Y-97025000D01*
X121400000Y-96600000D02*
X121400000Y-96000000D01*
X120975000Y-97025000D02*
X121400000Y-96600000D01*
X116450000Y-107500000D02*
X116450000Y-102450000D01*
X116450000Y-102450000D02*
X115900000Y-101900000D01*
X115900000Y-101900000D02*
X114300000Y-100300000D01*
X113625000Y-99625000D02*
X112050000Y-99625000D01*
X114300000Y-100300000D02*
X113625000Y-99625000D01*
X117950000Y-99625000D02*
X116775000Y-99625000D01*
X118200000Y-103200000D02*
X118200000Y-110300000D01*
X116500000Y-101500000D02*
X118200000Y-103200000D01*
X116500000Y-99900000D02*
X116500000Y-101500000D01*
X116775000Y-99625000D02*
X116500000Y-99900000D01*
X125800000Y-91300000D02*
X125600000Y-91300000D01*
D17*
X117950000Y-96375000D02*
X119425000Y-96375000D01*
X121300000Y-91300000D02*
X125800000Y-91300000D01*
D16*
X125800000Y-91300000D02*
X126000000Y-91300000D01*
D17*
X119900000Y-92700000D02*
X121300000Y-91300000D01*
X119900000Y-95900000D02*
X119900000Y-92700000D01*
X119425000Y-96375000D02*
X119900000Y-95900000D01*
D18*
G36*
X129375000Y-124375000D02*
X100625000Y-124375000D01*
X100625000Y-93050000D01*
X100739225Y-93050000D01*
X100739225Y-93950000D01*
X100777576Y-94153818D01*
X100898032Y-94341012D01*
X101081827Y-94466594D01*
X101300000Y-94510775D01*
X102250000Y-94510775D01*
X102250000Y-99989225D01*
X101300000Y-99989225D01*
X101096182Y-100027576D01*
X100908988Y-100148032D01*
X100783406Y-100331827D01*
X100739225Y-100550000D01*
X100739225Y-101450000D01*
X100777576Y-101653818D01*
X100898032Y-101841012D01*
X101081827Y-101966594D01*
X101300000Y-102010775D01*
X102250000Y-102010775D01*
X102250000Y-104989225D01*
X101300000Y-104989225D01*
X101096182Y-105027576D01*
X100908988Y-105148032D01*
X100783406Y-105331827D01*
X100739225Y-105550000D01*
X100739225Y-106450000D01*
X100777576Y-106653818D01*
X100898032Y-106841012D01*
X101081827Y-106966594D01*
X101300000Y-107010775D01*
X102250000Y-107010775D01*
X102250000Y-107489225D01*
X101300000Y-107489225D01*
X101096182Y-107527576D01*
X100908988Y-107648032D01*
X100783406Y-107831827D01*
X100739225Y-108050000D01*
X100739225Y-108950000D01*
X100777576Y-109153818D01*
X100898032Y-109341012D01*
X101081827Y-109466594D01*
X101300000Y-109510775D01*
X102250000Y-109510775D01*
X102250000Y-112100000D01*
X102307090Y-112387013D01*
X102469670Y-112630330D01*
X102969670Y-113130330D01*
X103212987Y-113292910D01*
X103500000Y-113350000D01*
X126300000Y-113350000D01*
X126587013Y-113292910D01*
X126830330Y-113130330D01*
X127230330Y-112730330D01*
X127392910Y-112487013D01*
X127450000Y-112200000D01*
X127450000Y-112010775D01*
X128400000Y-112010775D01*
X128603818Y-111972424D01*
X128791012Y-111851968D01*
X128916594Y-111668173D01*
X128960775Y-111450000D01*
X128960775Y-110550000D01*
X128922424Y-110346182D01*
X128801968Y-110158988D01*
X128618173Y-110033406D01*
X128400000Y-109989225D01*
X127450000Y-109989225D01*
X127450000Y-107010775D01*
X128400000Y-107010775D01*
X128603818Y-106972424D01*
X128791012Y-106851968D01*
X128916594Y-106668173D01*
X128960775Y-106450000D01*
X128960775Y-105550000D01*
X128922424Y-105346182D01*
X128801968Y-105158988D01*
X128618173Y-105033406D01*
X128400000Y-104989225D01*
X127450000Y-104989225D01*
X127450000Y-102010775D01*
X128400000Y-102010775D01*
X128603818Y-101972424D01*
X128791012Y-101851968D01*
X128916594Y-101668173D01*
X128960775Y-101450000D01*
X128960775Y-100550000D01*
X128922424Y-100346182D01*
X128801968Y-100158988D01*
X128618173Y-100033406D01*
X128400000Y-99989225D01*
X127450000Y-99989225D01*
X127450000Y-95010660D01*
X127949885Y-94510775D01*
X128400000Y-94510775D01*
X128603818Y-94472424D01*
X128791012Y-94351968D01*
X128916594Y-94168173D01*
X128960775Y-93950000D01*
X128960775Y-93050000D01*
X128922424Y-92846182D01*
X128801968Y-92658988D01*
X128618173Y-92533406D01*
X128550000Y-92519601D01*
X128550000Y-89100000D01*
X128492910Y-88812987D01*
X128330330Y-88569670D01*
X126350000Y-86589340D01*
X126350000Y-85725889D01*
X126376857Y-85714792D01*
X126813260Y-85279151D01*
X127049730Y-84709667D01*
X127050268Y-84093039D01*
X126814792Y-83523143D01*
X126379151Y-83086740D01*
X125809667Y-82850270D01*
X125193039Y-82849732D01*
X124623143Y-83085208D01*
X124186740Y-83520849D01*
X123950270Y-84090333D01*
X123949732Y-84706961D01*
X124185208Y-85276857D01*
X124620849Y-85713260D01*
X124850000Y-85808412D01*
X124850000Y-86019601D01*
X124700000Y-85989225D01*
X123500000Y-85989225D01*
X123296182Y-86027576D01*
X123108988Y-86148032D01*
X122998743Y-86309381D01*
X122901968Y-86158988D01*
X122718173Y-86033406D01*
X122500000Y-85989225D01*
X121300000Y-85989225D01*
X121096182Y-86027576D01*
X120908988Y-86148032D01*
X120805153Y-86300000D01*
X119992707Y-86300000D01*
X119901968Y-86158988D01*
X119718173Y-86033406D01*
X119500000Y-85989225D01*
X118300000Y-85989225D01*
X118096182Y-86027576D01*
X117908988Y-86148032D01*
X117798743Y-86309381D01*
X117701968Y-86158988D01*
X117518173Y-86033406D01*
X117300000Y-85989225D01*
X116100000Y-85989225D01*
X115896182Y-86027576D01*
X115708988Y-86148032D01*
X115583406Y-86331827D01*
X115539225Y-86550000D01*
X115539225Y-87450000D01*
X115577576Y-87653818D01*
X115698032Y-87841012D01*
X115881827Y-87966594D01*
X116000000Y-87990525D01*
X116000000Y-88508041D01*
X115896182Y-88527576D01*
X115708988Y-88648032D01*
X115583406Y-88831827D01*
X115539225Y-89050000D01*
X115539225Y-89950000D01*
X115577576Y-90153818D01*
X115698032Y-90341012D01*
X115881827Y-90466594D01*
X116000000Y-90490525D01*
X116000000Y-92100000D01*
X116053284Y-92367879D01*
X116205025Y-92594975D01*
X117250000Y-93639950D01*
X117250000Y-94342449D01*
X117196182Y-94352576D01*
X117008988Y-94473032D01*
X116883406Y-94656827D01*
X116839225Y-94875000D01*
X116839225Y-95025000D01*
X116714949Y-95025000D01*
X114800000Y-93110050D01*
X114800000Y-90491959D01*
X114903818Y-90472424D01*
X115091012Y-90351968D01*
X115216594Y-90168173D01*
X115260775Y-89950000D01*
X115260775Y-89050000D01*
X115222424Y-88846182D01*
X115101968Y-88658988D01*
X114918173Y-88533406D01*
X114800000Y-88509475D01*
X114800000Y-87991959D01*
X114903818Y-87972424D01*
X115091012Y-87851968D01*
X115216594Y-87668173D01*
X115260775Y-87450000D01*
X115260775Y-86550000D01*
X115222424Y-86346182D01*
X115101968Y-86158988D01*
X114918173Y-86033406D01*
X114700000Y-85989225D01*
X113500000Y-85989225D01*
X113296182Y-86027576D01*
X113108988Y-86148032D01*
X112998743Y-86309381D01*
X112901968Y-86158988D01*
X112718173Y-86033406D01*
X112500000Y-85989225D01*
X111300000Y-85989225D01*
X111096182Y-86027576D01*
X110908988Y-86148032D01*
X110805153Y-86300000D01*
X110192707Y-86300000D01*
X110101968Y-86158988D01*
X109918173Y-86033406D01*
X109700000Y-85989225D01*
X108500000Y-85989225D01*
X108296182Y-86027576D01*
X108108988Y-86148032D01*
X107998743Y-86309381D01*
X107901968Y-86158988D01*
X107718173Y-86033406D01*
X107500000Y-85989225D01*
X106300000Y-85989225D01*
X106096182Y-86027576D01*
X105908988Y-86148032D01*
X105783406Y-86331827D01*
X105739225Y-86550000D01*
X105739225Y-87450000D01*
X105777576Y-87653818D01*
X105898032Y-87841012D01*
X106081827Y-87966594D01*
X106300000Y-88010775D01*
X107150000Y-88010775D01*
X107150000Y-89989340D01*
X106889340Y-90250000D01*
X103800000Y-90250000D01*
X103512987Y-90307090D01*
X103274274Y-90466594D01*
X103269670Y-90469670D01*
X102469670Y-91269670D01*
X102307090Y-91512987D01*
X102250000Y-91800000D01*
X102250000Y-92489225D01*
X101300000Y-92489225D01*
X101096182Y-92527576D01*
X100908988Y-92648032D01*
X100783406Y-92831827D01*
X100739225Y-93050000D01*
X100625000Y-93050000D01*
X100625000Y-80625000D01*
X129375000Y-80625000D01*
X129375000Y-124375000D01*
X129375000Y-124375000D01*
G37*
X129375000Y-124375000D02*
X100625000Y-124375000D01*
X100625000Y-93050000D01*
X100739225Y-93050000D01*
X100739225Y-93950000D01*
X100777576Y-94153818D01*
X100898032Y-94341012D01*
X101081827Y-94466594D01*
X101300000Y-94510775D01*
X102250000Y-94510775D01*
X102250000Y-99989225D01*
X101300000Y-99989225D01*
X101096182Y-100027576D01*
X100908988Y-100148032D01*
X100783406Y-100331827D01*
X100739225Y-100550000D01*
X100739225Y-101450000D01*
X100777576Y-101653818D01*
X100898032Y-101841012D01*
X101081827Y-101966594D01*
X101300000Y-102010775D01*
X102250000Y-102010775D01*
X102250000Y-104989225D01*
X101300000Y-104989225D01*
X101096182Y-105027576D01*
X100908988Y-105148032D01*
X100783406Y-105331827D01*
X100739225Y-105550000D01*
X100739225Y-106450000D01*
X100777576Y-106653818D01*
X100898032Y-106841012D01*
X101081827Y-106966594D01*
X101300000Y-107010775D01*
X102250000Y-107010775D01*
X102250000Y-107489225D01*
X101300000Y-107489225D01*
X101096182Y-107527576D01*
X100908988Y-107648032D01*
X100783406Y-107831827D01*
X100739225Y-108050000D01*
X100739225Y-108950000D01*
X100777576Y-109153818D01*
X100898032Y-109341012D01*
X101081827Y-109466594D01*
X101300000Y-109510775D01*
X102250000Y-109510775D01*
X102250000Y-112100000D01*
X102307090Y-112387013D01*
X102469670Y-112630330D01*
X102969670Y-113130330D01*
X103212987Y-113292910D01*
X103500000Y-113350000D01*
X126300000Y-113350000D01*
X126587013Y-113292910D01*
X126830330Y-113130330D01*
X127230330Y-112730330D01*
X127392910Y-112487013D01*
X127450000Y-112200000D01*
X127450000Y-112010775D01*
X128400000Y-112010775D01*
X128603818Y-111972424D01*
X128791012Y-111851968D01*
X128916594Y-111668173D01*
X128960775Y-111450000D01*
X128960775Y-110550000D01*
X128922424Y-110346182D01*
X128801968Y-110158988D01*
X128618173Y-110033406D01*
X128400000Y-109989225D01*
X127450000Y-109989225D01*
X127450000Y-107010775D01*
X128400000Y-107010775D01*
X128603818Y-106972424D01*
X128791012Y-106851968D01*
X128916594Y-106668173D01*
X128960775Y-106450000D01*
X128960775Y-105550000D01*
X128922424Y-105346182D01*
X128801968Y-105158988D01*
X128618173Y-105033406D01*
X128400000Y-104989225D01*
X127450000Y-104989225D01*
X127450000Y-102010775D01*
X128400000Y-102010775D01*
X128603818Y-101972424D01*
X128791012Y-101851968D01*
X128916594Y-101668173D01*
X128960775Y-101450000D01*
X128960775Y-100550000D01*
X128922424Y-100346182D01*
X128801968Y-100158988D01*
X128618173Y-100033406D01*
X128400000Y-99989225D01*
X127450000Y-99989225D01*
X127450000Y-95010660D01*
X127949885Y-94510775D01*
X128400000Y-94510775D01*
X128603818Y-94472424D01*
X128791012Y-94351968D01*
X128916594Y-94168173D01*
X128960775Y-93950000D01*
X128960775Y-93050000D01*
X128922424Y-92846182D01*
X128801968Y-92658988D01*
X128618173Y-92533406D01*
X128550000Y-92519601D01*
X128550000Y-89100000D01*
X128492910Y-88812987D01*
X128330330Y-88569670D01*
X126350000Y-86589340D01*
X126350000Y-85725889D01*
X126376857Y-85714792D01*
X126813260Y-85279151D01*
X127049730Y-84709667D01*
X127050268Y-84093039D01*
X126814792Y-83523143D01*
X126379151Y-83086740D01*
X125809667Y-82850270D01*
X125193039Y-82849732D01*
X124623143Y-83085208D01*
X124186740Y-83520849D01*
X123950270Y-84090333D01*
X123949732Y-84706961D01*
X124185208Y-85276857D01*
X124620849Y-85713260D01*
X124850000Y-85808412D01*
X124850000Y-86019601D01*
X124700000Y-85989225D01*
X123500000Y-85989225D01*
X123296182Y-86027576D01*
X123108988Y-86148032D01*
X122998743Y-86309381D01*
X122901968Y-86158988D01*
X122718173Y-86033406D01*
X122500000Y-85989225D01*
X121300000Y-85989225D01*
X121096182Y-86027576D01*
X120908988Y-86148032D01*
X120805153Y-86300000D01*
X119992707Y-86300000D01*
X119901968Y-86158988D01*
X119718173Y-86033406D01*
X119500000Y-85989225D01*
X118300000Y-85989225D01*
X118096182Y-86027576D01*
X117908988Y-86148032D01*
X117798743Y-86309381D01*
X117701968Y-86158988D01*
X117518173Y-86033406D01*
X117300000Y-85989225D01*
X116100000Y-85989225D01*
X115896182Y-86027576D01*
X115708988Y-86148032D01*
X115583406Y-86331827D01*
X115539225Y-86550000D01*
X115539225Y-87450000D01*
X115577576Y-87653818D01*
X115698032Y-87841012D01*
X115881827Y-87966594D01*
X116000000Y-87990525D01*
X116000000Y-88508041D01*
X115896182Y-88527576D01*
X115708988Y-88648032D01*
X115583406Y-88831827D01*
X115539225Y-89050000D01*
X115539225Y-89950000D01*
X115577576Y-90153818D01*
X115698032Y-90341012D01*
X115881827Y-90466594D01*
X116000000Y-90490525D01*
X116000000Y-92100000D01*
X116053284Y-92367879D01*
X116205025Y-92594975D01*
X117250000Y-93639950D01*
X117250000Y-94342449D01*
X117196182Y-94352576D01*
X117008988Y-94473032D01*
X116883406Y-94656827D01*
X116839225Y-94875000D01*
X116839225Y-95025000D01*
X116714949Y-95025000D01*
X114800000Y-93110050D01*
X114800000Y-90491959D01*
X114903818Y-90472424D01*
X115091012Y-90351968D01*
X115216594Y-90168173D01*
X115260775Y-89950000D01*
X115260775Y-89050000D01*
X115222424Y-88846182D01*
X115101968Y-88658988D01*
X114918173Y-88533406D01*
X114800000Y-88509475D01*
X114800000Y-87991959D01*
X114903818Y-87972424D01*
X115091012Y-87851968D01*
X115216594Y-87668173D01*
X115260775Y-87450000D01*
X115260775Y-86550000D01*
X115222424Y-86346182D01*
X115101968Y-86158988D01*
X114918173Y-86033406D01*
X114700000Y-85989225D01*
X113500000Y-85989225D01*
X113296182Y-86027576D01*
X113108988Y-86148032D01*
X112998743Y-86309381D01*
X112901968Y-86158988D01*
X112718173Y-86033406D01*
X112500000Y-85989225D01*
X111300000Y-85989225D01*
X111096182Y-86027576D01*
X110908988Y-86148032D01*
X110805153Y-86300000D01*
X110192707Y-86300000D01*
X110101968Y-86158988D01*
X109918173Y-86033406D01*
X109700000Y-85989225D01*
X108500000Y-85989225D01*
X108296182Y-86027576D01*
X108108988Y-86148032D01*
X107998743Y-86309381D01*
X107901968Y-86158988D01*
X107718173Y-86033406D01*
X107500000Y-85989225D01*
X106300000Y-85989225D01*
X106096182Y-86027576D01*
X105908988Y-86148032D01*
X105783406Y-86331827D01*
X105739225Y-86550000D01*
X105739225Y-87450000D01*
X105777576Y-87653818D01*
X105898032Y-87841012D01*
X106081827Y-87966594D01*
X106300000Y-88010775D01*
X107150000Y-88010775D01*
X107150000Y-89989340D01*
X106889340Y-90250000D01*
X103800000Y-90250000D01*
X103512987Y-90307090D01*
X103274274Y-90466594D01*
X103269670Y-90469670D01*
X102469670Y-91269670D01*
X102307090Y-91512987D01*
X102250000Y-91800000D01*
X102250000Y-92489225D01*
X101300000Y-92489225D01*
X101096182Y-92527576D01*
X100908988Y-92648032D01*
X100783406Y-92831827D01*
X100739225Y-93050000D01*
X100625000Y-93050000D01*
X100625000Y-80625000D01*
X129375000Y-80625000D01*
X129375000Y-124375000D01*
G36*
X111083406Y-99206827D02*
X111039225Y-99425000D01*
X111039225Y-99825000D01*
X111063609Y-99954589D01*
X111039225Y-100075000D01*
X111039225Y-100475000D01*
X111063609Y-100604589D01*
X111039225Y-100725000D01*
X111039225Y-101125000D01*
X111077576Y-101328818D01*
X111198032Y-101516012D01*
X111381827Y-101641594D01*
X111600000Y-101685775D01*
X112600000Y-101685775D01*
X112803818Y-101647424D01*
X112991012Y-101526968D01*
X113062168Y-101422828D01*
X113900000Y-102260660D01*
X113900000Y-102992449D01*
X113846182Y-103002576D01*
X113658988Y-103123032D01*
X113533406Y-103306827D01*
X113489225Y-103525000D01*
X113489225Y-104275000D01*
X113524597Y-104462988D01*
X113508988Y-104473032D01*
X113383406Y-104656827D01*
X113339225Y-104875000D01*
X113339225Y-106125000D01*
X113377576Y-106328818D01*
X113498032Y-106516012D01*
X113681827Y-106641594D01*
X113900000Y-106685775D01*
X114450000Y-106685775D01*
X114450000Y-111850000D01*
X109592357Y-111850000D01*
X109716594Y-111668173D01*
X109760775Y-111450000D01*
X109760775Y-110550000D01*
X109722424Y-110346182D01*
X109601968Y-110158988D01*
X109418173Y-110033406D01*
X109300000Y-110009475D01*
X109300000Y-109491959D01*
X109403818Y-109472424D01*
X109591012Y-109351968D01*
X109716594Y-109168173D01*
X109760775Y-108950000D01*
X109760775Y-108050000D01*
X109722424Y-107846182D01*
X109601968Y-107658988D01*
X109418173Y-107533406D01*
X109200000Y-107489225D01*
X108679175Y-107489225D01*
X108200725Y-107010775D01*
X109200000Y-107010775D01*
X109403818Y-106972424D01*
X109591012Y-106851968D01*
X109716594Y-106668173D01*
X109760775Y-106450000D01*
X109760775Y-105550000D01*
X109722424Y-105346182D01*
X109601968Y-105158988D01*
X109418173Y-105033406D01*
X109300000Y-105009475D01*
X109300000Y-104491959D01*
X109403818Y-104472424D01*
X109591012Y-104351968D01*
X109716594Y-104168173D01*
X109760775Y-103950000D01*
X109760775Y-103329175D01*
X110494975Y-102594975D01*
X110646716Y-102367879D01*
X110700000Y-102100000D01*
X110700000Y-99189950D01*
X110864950Y-99025000D01*
X111207643Y-99025000D01*
X111083406Y-99206827D01*
X111083406Y-99206827D01*
G37*
X111083406Y-99206827D02*
X111039225Y-99425000D01*
X111039225Y-99825000D01*
X111063609Y-99954589D01*
X111039225Y-100075000D01*
X111039225Y-100475000D01*
X111063609Y-100604589D01*
X111039225Y-100725000D01*
X111039225Y-101125000D01*
X111077576Y-101328818D01*
X111198032Y-101516012D01*
X111381827Y-101641594D01*
X111600000Y-101685775D01*
X112600000Y-101685775D01*
X112803818Y-101647424D01*
X112991012Y-101526968D01*
X113062168Y-101422828D01*
X113900000Y-102260660D01*
X113900000Y-102992449D01*
X113846182Y-103002576D01*
X113658988Y-103123032D01*
X113533406Y-103306827D01*
X113489225Y-103525000D01*
X113489225Y-104275000D01*
X113524597Y-104462988D01*
X113508988Y-104473032D01*
X113383406Y-104656827D01*
X113339225Y-104875000D01*
X113339225Y-106125000D01*
X113377576Y-106328818D01*
X113498032Y-106516012D01*
X113681827Y-106641594D01*
X113900000Y-106685775D01*
X114450000Y-106685775D01*
X114450000Y-111850000D01*
X109592357Y-111850000D01*
X109716594Y-111668173D01*
X109760775Y-111450000D01*
X109760775Y-110550000D01*
X109722424Y-110346182D01*
X109601968Y-110158988D01*
X109418173Y-110033406D01*
X109300000Y-110009475D01*
X109300000Y-109491959D01*
X109403818Y-109472424D01*
X109591012Y-109351968D01*
X109716594Y-109168173D01*
X109760775Y-108950000D01*
X109760775Y-108050000D01*
X109722424Y-107846182D01*
X109601968Y-107658988D01*
X109418173Y-107533406D01*
X109200000Y-107489225D01*
X108679175Y-107489225D01*
X108200725Y-107010775D01*
X109200000Y-107010775D01*
X109403818Y-106972424D01*
X109591012Y-106851968D01*
X109716594Y-106668173D01*
X109760775Y-106450000D01*
X109760775Y-105550000D01*
X109722424Y-105346182D01*
X109601968Y-105158988D01*
X109418173Y-105033406D01*
X109300000Y-105009475D01*
X109300000Y-104491959D01*
X109403818Y-104472424D01*
X109591012Y-104351968D01*
X109716594Y-104168173D01*
X109760775Y-103950000D01*
X109760775Y-103329175D01*
X110494975Y-102594975D01*
X110646716Y-102367879D01*
X110700000Y-102100000D01*
X110700000Y-99189950D01*
X110864950Y-99025000D01*
X111207643Y-99025000D01*
X111083406Y-99206827D01*
G36*
X113098032Y-90341012D02*
X113281827Y-90466594D01*
X113400000Y-90490525D01*
X113400000Y-93400000D01*
X113453284Y-93667879D01*
X113605025Y-93894975D01*
X115930023Y-96219972D01*
X115930025Y-96219975D01*
X115996250Y-96264225D01*
X116157121Y-96371716D01*
X116425000Y-96425001D01*
X116425005Y-96425000D01*
X116839225Y-96425000D01*
X116839225Y-96575000D01*
X116863609Y-96704589D01*
X116839225Y-96825000D01*
X116839225Y-97225000D01*
X116863609Y-97354589D01*
X116839225Y-97475000D01*
X116839225Y-97875000D01*
X116863609Y-98004589D01*
X116839225Y-98125000D01*
X116839225Y-98525000D01*
X116863609Y-98654589D01*
X116839225Y-98775000D01*
X116839225Y-98925000D01*
X116775005Y-98925000D01*
X116775000Y-98924999D01*
X116507121Y-98978284D01*
X116280025Y-99130025D01*
X116005025Y-99405025D01*
X115853284Y-99632121D01*
X115844755Y-99675000D01*
X115800000Y-99900000D01*
X115800000Y-100810050D01*
X114119975Y-99130025D01*
X113892879Y-98978284D01*
X113625000Y-98925000D01*
X112992357Y-98925000D01*
X113116594Y-98743173D01*
X113160775Y-98525000D01*
X113160775Y-98125000D01*
X113136391Y-97995411D01*
X113160775Y-97875000D01*
X113160775Y-97475000D01*
X113136391Y-97345411D01*
X113160775Y-97225000D01*
X113160775Y-96825000D01*
X113136391Y-96695411D01*
X113160775Y-96575000D01*
X113160775Y-96175000D01*
X113136391Y-96045411D01*
X113160775Y-95925000D01*
X113160775Y-95525000D01*
X113136391Y-95395411D01*
X113160775Y-95275000D01*
X113160775Y-94875000D01*
X113122424Y-94671182D01*
X113001968Y-94483988D01*
X112818173Y-94358406D01*
X112600000Y-94314225D01*
X111600000Y-94314225D01*
X111396182Y-94352576D01*
X111361334Y-94375000D01*
X109555219Y-94375000D01*
X109591012Y-94351968D01*
X109716594Y-94168173D01*
X109760775Y-93950000D01*
X109760775Y-93050000D01*
X109722424Y-92846182D01*
X109601968Y-92658988D01*
X109418173Y-92533406D01*
X109200000Y-92489225D01*
X108000000Y-92489225D01*
X107796182Y-92527576D01*
X107608988Y-92648032D01*
X107498743Y-92809381D01*
X107401968Y-92658988D01*
X107218173Y-92533406D01*
X107000000Y-92489225D01*
X105800000Y-92489225D01*
X105596182Y-92527576D01*
X105408988Y-92648032D01*
X105305153Y-92800000D01*
X105192707Y-92800000D01*
X105101968Y-92658988D01*
X104918173Y-92533406D01*
X104700000Y-92489225D01*
X103750000Y-92489225D01*
X103750000Y-92110660D01*
X104110660Y-91750000D01*
X107200000Y-91750000D01*
X107487013Y-91692910D01*
X107730330Y-91530330D01*
X108430330Y-90830330D01*
X108592910Y-90587013D01*
X108608075Y-90510775D01*
X109600000Y-90510775D01*
X109803818Y-90472424D01*
X109991012Y-90351968D01*
X110094847Y-90200000D01*
X110807293Y-90200000D01*
X110898032Y-90341012D01*
X111081827Y-90466594D01*
X111300000Y-90510775D01*
X112500000Y-90510775D01*
X112703818Y-90472424D01*
X112891012Y-90351968D01*
X113001257Y-90190619D01*
X113098032Y-90341012D01*
X113098032Y-90341012D01*
G37*
X113098032Y-90341012D02*
X113281827Y-90466594D01*
X113400000Y-90490525D01*
X113400000Y-93400000D01*
X113453284Y-93667879D01*
X113605025Y-93894975D01*
X115930023Y-96219972D01*
X115930025Y-96219975D01*
X115996250Y-96264225D01*
X116157121Y-96371716D01*
X116425000Y-96425001D01*
X116425005Y-96425000D01*
X116839225Y-96425000D01*
X116839225Y-96575000D01*
X116863609Y-96704589D01*
X116839225Y-96825000D01*
X116839225Y-97225000D01*
X116863609Y-97354589D01*
X116839225Y-97475000D01*
X116839225Y-97875000D01*
X116863609Y-98004589D01*
X116839225Y-98125000D01*
X116839225Y-98525000D01*
X116863609Y-98654589D01*
X116839225Y-98775000D01*
X116839225Y-98925000D01*
X116775005Y-98925000D01*
X116775000Y-98924999D01*
X116507121Y-98978284D01*
X116280025Y-99130025D01*
X116005025Y-99405025D01*
X115853284Y-99632121D01*
X115844755Y-99675000D01*
X115800000Y-99900000D01*
X115800000Y-100810050D01*
X114119975Y-99130025D01*
X113892879Y-98978284D01*
X113625000Y-98925000D01*
X112992357Y-98925000D01*
X113116594Y-98743173D01*
X113160775Y-98525000D01*
X113160775Y-98125000D01*
X113136391Y-97995411D01*
X113160775Y-97875000D01*
X113160775Y-97475000D01*
X113136391Y-97345411D01*
X113160775Y-97225000D01*
X113160775Y-96825000D01*
X113136391Y-96695411D01*
X113160775Y-96575000D01*
X113160775Y-96175000D01*
X113136391Y-96045411D01*
X113160775Y-95925000D01*
X113160775Y-95525000D01*
X113136391Y-95395411D01*
X113160775Y-95275000D01*
X113160775Y-94875000D01*
X113122424Y-94671182D01*
X113001968Y-94483988D01*
X112818173Y-94358406D01*
X112600000Y-94314225D01*
X111600000Y-94314225D01*
X111396182Y-94352576D01*
X111361334Y-94375000D01*
X109555219Y-94375000D01*
X109591012Y-94351968D01*
X109716594Y-94168173D01*
X109760775Y-93950000D01*
X109760775Y-93050000D01*
X109722424Y-92846182D01*
X109601968Y-92658988D01*
X109418173Y-92533406D01*
X109200000Y-92489225D01*
X108000000Y-92489225D01*
X107796182Y-92527576D01*
X107608988Y-92648032D01*
X107498743Y-92809381D01*
X107401968Y-92658988D01*
X107218173Y-92533406D01*
X107000000Y-92489225D01*
X105800000Y-92489225D01*
X105596182Y-92527576D01*
X105408988Y-92648032D01*
X105305153Y-92800000D01*
X105192707Y-92800000D01*
X105101968Y-92658988D01*
X104918173Y-92533406D01*
X104700000Y-92489225D01*
X103750000Y-92489225D01*
X103750000Y-92110660D01*
X104110660Y-91750000D01*
X107200000Y-91750000D01*
X107487013Y-91692910D01*
X107730330Y-91530330D01*
X108430330Y-90830330D01*
X108592910Y-90587013D01*
X108608075Y-90510775D01*
X109600000Y-90510775D01*
X109803818Y-90472424D01*
X109991012Y-90351968D01*
X110094847Y-90200000D01*
X110807293Y-90200000D01*
X110898032Y-90341012D01*
X111081827Y-90466594D01*
X111300000Y-90510775D01*
X112500000Y-90510775D01*
X112703818Y-90472424D01*
X112891012Y-90351968D01*
X113001257Y-90190619D01*
X113098032Y-90341012D01*
G36*
X123098032Y-87841012D02*
X123281827Y-87966594D01*
X123500000Y-88010775D01*
X124700000Y-88010775D01*
X124903818Y-87972424D01*
X125091012Y-87851968D01*
X125160684Y-87750000D01*
X125389340Y-87750000D01*
X127050000Y-89410660D01*
X127050000Y-90750372D01*
X126914792Y-90423143D01*
X126479151Y-89986740D01*
X125909667Y-89750270D01*
X125293039Y-89749732D01*
X124723143Y-89985208D01*
X124286740Y-90420849D01*
X124233112Y-90550000D01*
X121300000Y-90550000D01*
X121012987Y-90607090D01*
X120769670Y-90769670D01*
X119369670Y-92169670D01*
X119207090Y-92412987D01*
X119150000Y-92700000D01*
X119150000Y-95589340D01*
X119114340Y-95625000D01*
X118960775Y-95625000D01*
X118960775Y-95525000D01*
X118936391Y-95395411D01*
X118960775Y-95275000D01*
X118960775Y-94875000D01*
X118922424Y-94671182D01*
X118801968Y-94483988D01*
X118650000Y-94380153D01*
X118650000Y-93350000D01*
X118622747Y-93212987D01*
X118596716Y-93082121D01*
X118444975Y-92855025D01*
X117400000Y-91810050D01*
X117400000Y-90491959D01*
X117503818Y-90472424D01*
X117691012Y-90351968D01*
X117801257Y-90190619D01*
X117898032Y-90341012D01*
X118081827Y-90466594D01*
X118300000Y-90510775D01*
X119500000Y-90510775D01*
X119703818Y-90472424D01*
X119891012Y-90351968D01*
X119994847Y-90200000D01*
X120807293Y-90200000D01*
X120898032Y-90341012D01*
X121081827Y-90466594D01*
X121300000Y-90510775D01*
X122500000Y-90510775D01*
X122703818Y-90472424D01*
X122891012Y-90351968D01*
X123016594Y-90168173D01*
X123060775Y-89950000D01*
X123060775Y-89050000D01*
X123022424Y-88846182D01*
X122901968Y-88658988D01*
X122718173Y-88533406D01*
X122500000Y-88489225D01*
X121300000Y-88489225D01*
X121096182Y-88527576D01*
X120908988Y-88648032D01*
X120805153Y-88800000D01*
X119992707Y-88800000D01*
X119901968Y-88658988D01*
X119718173Y-88533406D01*
X119500000Y-88489225D01*
X118300000Y-88489225D01*
X118096182Y-88527576D01*
X117908988Y-88648032D01*
X117798743Y-88809381D01*
X117701968Y-88658988D01*
X117518173Y-88533406D01*
X117400000Y-88509475D01*
X117400000Y-87991959D01*
X117503818Y-87972424D01*
X117691012Y-87851968D01*
X117801257Y-87690619D01*
X117898032Y-87841012D01*
X118081827Y-87966594D01*
X118300000Y-88010775D01*
X119500000Y-88010775D01*
X119703818Y-87972424D01*
X119891012Y-87851968D01*
X119994847Y-87700000D01*
X120807293Y-87700000D01*
X120898032Y-87841012D01*
X121081827Y-87966594D01*
X121300000Y-88010775D01*
X122500000Y-88010775D01*
X122703818Y-87972424D01*
X122891012Y-87851968D01*
X123001257Y-87690619D01*
X123098032Y-87841012D01*
X123098032Y-87841012D01*
G37*
X123098032Y-87841012D02*
X123281827Y-87966594D01*
X123500000Y-88010775D01*
X124700000Y-88010775D01*
X124903818Y-87972424D01*
X125091012Y-87851968D01*
X125160684Y-87750000D01*
X125389340Y-87750000D01*
X127050000Y-89410660D01*
X127050000Y-90750372D01*
X126914792Y-90423143D01*
X126479151Y-89986740D01*
X125909667Y-89750270D01*
X125293039Y-89749732D01*
X124723143Y-89985208D01*
X124286740Y-90420849D01*
X124233112Y-90550000D01*
X121300000Y-90550000D01*
X121012987Y-90607090D01*
X120769670Y-90769670D01*
X119369670Y-92169670D01*
X119207090Y-92412987D01*
X119150000Y-92700000D01*
X119150000Y-95589340D01*
X119114340Y-95625000D01*
X118960775Y-95625000D01*
X118960775Y-95525000D01*
X118936391Y-95395411D01*
X118960775Y-95275000D01*
X118960775Y-94875000D01*
X118922424Y-94671182D01*
X118801968Y-94483988D01*
X118650000Y-94380153D01*
X118650000Y-93350000D01*
X118622747Y-93212987D01*
X118596716Y-93082121D01*
X118444975Y-92855025D01*
X117400000Y-91810050D01*
X117400000Y-90491959D01*
X117503818Y-90472424D01*
X117691012Y-90351968D01*
X117801257Y-90190619D01*
X117898032Y-90341012D01*
X118081827Y-90466594D01*
X118300000Y-90510775D01*
X119500000Y-90510775D01*
X119703818Y-90472424D01*
X119891012Y-90351968D01*
X119994847Y-90200000D01*
X120807293Y-90200000D01*
X120898032Y-90341012D01*
X121081827Y-90466594D01*
X121300000Y-90510775D01*
X122500000Y-90510775D01*
X122703818Y-90472424D01*
X122891012Y-90351968D01*
X123016594Y-90168173D01*
X123060775Y-89950000D01*
X123060775Y-89050000D01*
X123022424Y-88846182D01*
X122901968Y-88658988D01*
X122718173Y-88533406D01*
X122500000Y-88489225D01*
X121300000Y-88489225D01*
X121096182Y-88527576D01*
X120908988Y-88648032D01*
X120805153Y-88800000D01*
X119992707Y-88800000D01*
X119901968Y-88658988D01*
X119718173Y-88533406D01*
X119500000Y-88489225D01*
X118300000Y-88489225D01*
X118096182Y-88527576D01*
X117908988Y-88648032D01*
X117798743Y-88809381D01*
X117701968Y-88658988D01*
X117518173Y-88533406D01*
X117400000Y-88509475D01*
X117400000Y-87991959D01*
X117503818Y-87972424D01*
X117691012Y-87851968D01*
X117801257Y-87690619D01*
X117898032Y-87841012D01*
X118081827Y-87966594D01*
X118300000Y-88010775D01*
X119500000Y-88010775D01*
X119703818Y-87972424D01*
X119891012Y-87851968D01*
X119994847Y-87700000D01*
X120807293Y-87700000D01*
X120898032Y-87841012D01*
X121081827Y-87966594D01*
X121300000Y-88010775D01*
X122500000Y-88010775D01*
X122703818Y-87972424D01*
X122891012Y-87851968D01*
X123001257Y-87690619D01*
X123098032Y-87841012D01*
M02*
