<?xml version="1.0" standalone="no"?>
 <!DOCTYPE svg PUBLIC "-//W3C//DTD SVG 1.1//EN" 
 "http://www.w3.org/Graphics/SVG/1.1/DTD/svg11.dtd"> 
<svg xmlns="http://www.w3.org/2000/svg" version="1.1" 
    width="29.7002cm" height="21.0007cm" viewBox="0 0 116930 82680 ">
<title>SVG Picture created as smart_indicator-F.Cu.svg date 2017/11/09 11:31:57 </title>
  <desc>Picture generated by PCBNEW </desc>
<g style="fill:#000000; fill-opacity:1;stroke:#000000; stroke-opacity:1;
stroke-linecap:round; stroke-linejoin:round; "
 transform="translate(0 0) scale(1 1)">
</g>
<g style="fill:#000000; fill-opacity:0.0; 
stroke:#000000; stroke-width:-0.000393701; stroke-opacity:1; 
stroke-linecap:round; stroke-linejoin:round;">
</g>
<g style="fill:#000000; fill-opacity:0.0; 
stroke:#000000; stroke-width:0; stroke-opacity:1; 
stroke-linecap:round; stroke-linejoin:round;">
</g>
<g style="fill:#000000; fill-opacity:1.0; 
stroke:#000000; stroke-width:0; stroke-opacity:1; 
stroke-linecap:round; stroke-linejoin:round;">
<polyline style="fill-rule:evenodd;"
points="49212,43877
49212,43523
49685,43523
49685,43877
49212,43877
" /> 
<polyline style="fill-rule:evenodd;"
points="50078,43877
50078,43523
50551,43523
50551,43877
50078,43877
" /> 
<polyline style="fill-rule:evenodd;"
points="49212,42893
49212,42539
49685,42539
49685,42893
49212,42893
" /> 
<polyline style="fill-rule:evenodd;"
points="50078,42893
50078,42539
50551,42539
50551,42893
50078,42893
" /> 
<polyline style="fill-rule:evenodd;"
points="49212,41909
49212,41555
49685,41555
49685,41909
49212,41909
" /> 
<polyline style="fill-rule:evenodd;"
points="50078,41909
50078,41555
50551,41555
50551,41909
50078,41909
" /> 
<polyline style="fill-rule:evenodd;"
points="49212,40925
49212,40570
49685,40570
49685,40925
49212,40925
" /> 
<polyline style="fill-rule:evenodd;"
points="50078,40925
50078,40570
50551,40570
50551,40925
50078,40925
" /> 
<polyline style="fill-rule:evenodd;"
points="41220,42539
41220,42893
40748,42893
40748,42539
41220,42539
" /> 
<polyline style="fill-rule:evenodd;"
points="40354,42539
40354,42893
39881,42893
39881,42539
40354,42539
" /> 
<polyline style="fill-rule:evenodd;"
points="41220,43523
41220,43877
40748,43877
40748,43523
41220,43523
" /> 
<polyline style="fill-rule:evenodd;"
points="40354,43523
40354,43877
39881,43877
39881,43523
40354,43523
" /> 
<polyline style="fill-rule:evenodd;"
points="49212,39940
49212,39586
49685,39586
49685,39940
49212,39940
" /> 
<polyline style="fill-rule:evenodd;"
points="50078,39940
50078,39586
50551,39586
50551,39940
50078,39940
" /> 
<polyline style="fill-rule:evenodd;"
points="49212,38956
49212,38602
49685,38602
49685,38956
49212,38956
" /> 
<polyline style="fill-rule:evenodd;"
points="50078,38956
50078,38602
50551,38602
50551,38956
50078,38956
" /> 
<polyline style="fill-rule:evenodd;"
points="43188,34074
43188,34429
42716,34429
42716,34074
43188,34074
" /> 
<polyline style="fill-rule:evenodd;"
points="42322,34074
42322,34429
41850,34429
41850,34074
42322,34074
" /> 
<polyline style="fill-rule:evenodd;"
points="43149,35059
43149,35413
42677,35413
42677,35059
43149,35059
" /> 
<polyline style="fill-rule:evenodd;"
points="42283,35059
42283,35413
41811,35413
41811,35059
42283,35059
" /> 
<polyline style="fill-rule:evenodd;"
points="47755,34429
47755,34074
48228,34074
48228,34429
47755,34429
" /> 
<polyline style="fill-rule:evenodd;"
points="48622,34429
48622,34074
49094,34074
49094,34429
48622,34429
" /> 
<polyline style="fill-rule:evenodd;"
points="47755,35413
47755,35059
48228,35059
48228,35413
47755,35413
" /> 
<polyline style="fill-rule:evenodd;"
points="48622,35413
48622,35059
49094,35059
49094,35413
48622,35413
" /> 
<polyline style="fill-rule:evenodd;"
points="41220,36633
41220,36988
40748,36988
40748,36633
41220,36633
" /> 
<polyline style="fill-rule:evenodd;"
points="40354,36633
40354,36988
39881,36988
39881,36633
40354,36633
" /> 
<polyline style="fill-rule:evenodd;"
points="41220,37618
41220,37972
40748,37972
40748,37618
41220,37618
" /> 
<polyline style="fill-rule:evenodd;"
points="40354,37618
40354,37972
39881,37972
39881,37618
40354,37618
" /> 
<polyline style="fill-rule:evenodd;"
points="41220,39586
41220,39940
40748,39940
40748,39586
41220,39586
" /> 
<polyline style="fill-rule:evenodd;"
points="40354,39586
40354,39940
39881,39940
39881,39586
40354,39586
" /> 
<polyline style="fill-rule:evenodd;"
points="41220,38602
41220,38956
40748,38956
40748,38602
41220,38602
" /> 
<polyline style="fill-rule:evenodd;"
points="40354,38602
40354,38956
39881,38956
39881,38602
40354,38602
" /> 
<polyline style="fill-rule:evenodd;"
points="41220,41555
41220,41909
40748,41909
40748,41555
41220,41555
" /> 
<polyline style="fill-rule:evenodd;"
points="40354,41555
40354,41909
39881,41909
39881,41555
40354,41555
" /> 
<polyline style="fill-rule:evenodd;"
points="41220,40570
41220,40925
40748,40925
40748,40570
41220,40570
" /> 
<polyline style="fill-rule:evenodd;"
points="40354,40570
40354,40925
39881,40925
39881,40570
40354,40570
" /> 
<polyline style="fill-rule:evenodd;"
points="49212,36988
49212,36633
49685,36633
49685,36988
49212,36988
" /> 
<polyline style="fill-rule:evenodd;"
points="50078,36988
50078,36633
50551,36633
50551,36988
50078,36988
" /> 
<polyline style="fill-rule:evenodd;"
points="49212,37972
49212,37618
49685,37618
49685,37972
49212,37972
" /> 
<polyline style="fill-rule:evenodd;"
points="50078,37972
50078,37618
50551,37618
50551,37972
50078,37972
" /> 
<polyline style="fill-rule:evenodd;"
points="48897,43523
48897,43877
48425,43877
48425,43523
48897,43523
" /> 
<polyline style="fill-rule:evenodd;"
points="48031,43523
48031,43877
47559,43877
47559,43523
48031,43523
" /> 
<polyline style="fill-rule:evenodd;"
points="48897,42539
48897,42893
48425,42893
48425,42539
48897,42539
" /> 
<polyline style="fill-rule:evenodd;"
points="48031,42539
48031,42893
47559,42893
47559,42539
48031,42539
" /> 
<polyline style="fill-rule:evenodd;"
points="48897,41555
48897,41909
48425,41909
48425,41555
48897,41555
" /> 
<polyline style="fill-rule:evenodd;"
points="48031,41555
48031,41909
47559,41909
47559,41555
48031,41555
" /> 
<polyline style="fill-rule:evenodd;"
points="48897,40570
48897,40925
48425,40925
48425,40570
48897,40570
" /> 
<polyline style="fill-rule:evenodd;"
points="48031,40570
48031,40925
47559,40925
47559,40570
48031,40570
" /> 
<polyline style="fill-rule:evenodd;"
points="41653,42893
41653,42539
42125,42539
42125,42893
41653,42893
" /> 
<polyline style="fill-rule:evenodd;"
points="42519,42893
42519,42539
42992,42539
42992,42893
42519,42893
" /> 
<polyline style="fill-rule:evenodd;"
points="41653,43877
41653,43523
42125,43523
42125,43877
41653,43877
" /> 
<polyline style="fill-rule:evenodd;"
points="42519,43877
42519,43523
42992,43523
42992,43877
42519,43877
" /> 
<polyline style="fill-rule:evenodd;"
points="48897,39586
48897,39940
48425,39940
48425,39586
48897,39586
" /> 
<polyline style="fill-rule:evenodd;"
points="48031,39586
48031,39940
47559,39940
47559,39586
48031,39586
" /> 
<polyline style="fill-rule:evenodd;"
points="48897,38602
48897,38956
48425,38956
48425,38602
48897,38602
" /> 
<polyline style="fill-rule:evenodd;"
points="48031,38602
48031,38956
47559,38956
47559,38602
48031,38602
" /> 
<polyline style="fill-rule:evenodd;"
points="43818,34429
43818,34074
44291,34074
44291,34429
43818,34429
" /> 
<polyline style="fill-rule:evenodd;"
points="44685,34429
44685,34074
45157,34074
45157,34429
44685,34429
" /> 
<polyline style="fill-rule:evenodd;"
points="43818,35413
43818,35059
44291,35059
44291,35413
43818,35413
" /> 
<polyline style="fill-rule:evenodd;"
points="44685,35413
44685,35059
45157,35059
45157,35413
44685,35413
" /> 
<polyline style="fill-rule:evenodd;"
points="47047,34074
47047,34429
46574,34429
46574,34074
47047,34074
" /> 
<polyline style="fill-rule:evenodd;"
points="46181,34074
46181,34429
45708,34429
45708,34074
46181,34074
" /> 
<polyline style="fill-rule:evenodd;"
points="47047,35059
47047,35413
46574,35413
46574,35059
47047,35059
" /> 
<polyline style="fill-rule:evenodd;"
points="46181,35059
46181,35413
45708,35413
45708,35059
46181,35059
" /> 
<polyline style="fill-rule:evenodd;"
points="41653,36988
41653,36633
42125,36633
42125,36988
41653,36988
" /> 
<polyline style="fill-rule:evenodd;"
points="42519,36988
42519,36633
42992,36633
42992,36988
42519,36988
" /> 
<polyline style="fill-rule:evenodd;"
points="41653,37972
41653,37618
42125,37618
42125,37972
41653,37972
" /> 
<polyline style="fill-rule:evenodd;"
points="42519,37972
42519,37618
42992,37618
42992,37972
42519,37972
" /> 
<polyline style="fill-rule:evenodd;"
points="41653,39940
41653,39586
42125,39586
42125,39940
41653,39940
" /> 
<polyline style="fill-rule:evenodd;"
points="42519,39940
42519,39586
42992,39586
42992,39940
42519,39940
" /> 
<polyline style="fill-rule:evenodd;"
points="41653,38956
41653,38602
42125,38602
42125,38956
41653,38956
" /> 
<polyline style="fill-rule:evenodd;"
points="42519,38956
42519,38602
42992,38602
42992,38956
42519,38956
" /> 
<polyline style="fill-rule:evenodd;"
points="41653,41909
41653,41555
42125,41555
42125,41909
41653,41909
" /> 
<polyline style="fill-rule:evenodd;"
points="42519,41909
42519,41555
42992,41555
42992,41909
42519,41909
" /> 
<polyline style="fill-rule:evenodd;"
points="41653,40925
41653,40570
42125,40570
42125,40925
41653,40925
" /> 
<polyline style="fill-rule:evenodd;"
points="42519,40925
42519,40570
42992,40570
42992,40925
42519,40925
" /> 
<polyline style="fill-rule:evenodd;"
points="48897,36633
48897,36988
48425,36988
48425,36633
48897,36633
" /> 
<polyline style="fill-rule:evenodd;"
points="48031,36633
48031,36988
47559,36988
47559,36633
48031,36633
" /> 
<polyline style="fill-rule:evenodd;"
points="48897,37618
48897,37972
48425,37972
48425,37618
48897,37618
" /> 
<polyline style="fill-rule:evenodd;"
points="48031,37618
48031,37972
47559,37972
47559,37618
48031,37618
" /> 
<polyline style="fill-rule:evenodd;"
points="46141,42076
46141,42568
45551,42568
45551,42076
46141,42076
" /> 
<polyline style="fill-rule:evenodd;"
points="45157,42076
45157,42568
44566,42568
44566,42076
45157,42076
" /> 
<polyline style="fill-rule:evenodd;"
points="45374,40757
45374,41053
44901,41053
44901,40757
45374,40757
" /> 
<polyline style="fill-rule:evenodd;"
points="44625,40757
44625,41053
44153,41053
44153,40757
44625,40757
" /> 
<polyline style="fill-rule:evenodd;"
points="45433,41289
45433,41781
44842,41781
44842,41289
45433,41289
" /> 
<polyline style="fill-rule:evenodd;"
points="44448,41289
44448,41781
43858,41781
43858,41289
44448,41289
" /> 
<polyline style="fill-rule:evenodd;"
points="43937,37509
43937,37352
44330,37352
44330,37509
43937,37509
" /> 
<polyline style="fill-rule:evenodd;"
points="43937,37765
43937,37608
44330,37608
44330,37765
43937,37765
" /> 
<polyline style="fill-rule:evenodd;"
points="43937,38021
43937,37864
44330,37864
44330,38021
43937,38021
" /> 
<polyline style="fill-rule:evenodd;"
points="43937,38277
43937,38120
44330,38120
44330,38277
43937,38277
" /> 
<polyline style="fill-rule:evenodd;"
points="43937,38533
43937,38375
44330,38375
44330,38533
43937,38533
" /> 
<polyline style="fill-rule:evenodd;"
points="43937,38789
43937,38631
44330,38631
44330,38789
43937,38789
" /> 
<polyline style="fill-rule:evenodd;"
points="43937,39045
43937,38887
44330,38887
44330,39045
43937,39045
" /> 
<polyline style="fill-rule:evenodd;"
points="43937,39301
43937,39143
44330,39143
44330,39301
43937,39301
" /> 
<polyline style="fill-rule:evenodd;"
points="43937,39557
43937,39399
44330,39399
44330,39557
43937,39557
" /> 
<polyline style="fill-rule:evenodd;"
points="43937,39812
43937,39655
44330,39655
44330,39812
43937,39812
" /> 
<polyline style="fill-rule:evenodd;"
points="46220,39812
46220,39655
46614,39655
46614,39812
46220,39812
" /> 
<polyline style="fill-rule:evenodd;"
points="46220,39557
46220,39399
46614,39399
46614,39557
46220,39557
" /> 
<polyline style="fill-rule:evenodd;"
points="46220,39301
46220,39143
46614,39143
46614,39301
46220,39301
" /> 
<polyline style="fill-rule:evenodd;"
points="46220,39045
46220,38887
46614,38887
46614,39045
46220,39045
" /> 
<polyline style="fill-rule:evenodd;"
points="46220,38789
46220,38631
46614,38631
46614,38789
46220,38789
" /> 
<polyline style="fill-rule:evenodd;"
points="46220,38533
46220,38375
46614,38375
46614,38533
46220,38533
" /> 
<polyline style="fill-rule:evenodd;"
points="46220,38277
46220,38120
46614,38120
46614,38277
46220,38277
" /> 
<polyline style="fill-rule:evenodd;"
points="46220,38021
46220,37864
46614,37864
46614,38021
46220,38021
" /> 
<polyline style="fill-rule:evenodd;"
points="46220,37765
46220,37608
46614,37608
46614,37765
46220,37765
" /> 
<polyline style="fill-rule:evenodd;"
points="46220,37509
46220,37352
46614,37352
46614,37509
46220,37509
" /> 
<circle cx="49409.4" cy="33228.3" r="393.701" /> 
</g>
<g style="fill:#000000; fill-opacity:1.0; 
stroke:#000000; stroke-width:39.3701; stroke-opacity:1; 
stroke-linecap:round; stroke-linejoin:round;">
</g>
<g style="fill:#000000; fill-opacity:1.0; 
stroke:#000000; stroke-width:0; stroke-opacity:1; 
stroke-linecap:round; stroke-linejoin:round;">
<circle cx="48228.3" cy="33189" r="393.701" /> 
</g>
<g style="fill:#000000; fill-opacity:1.0; 
stroke:#000000; stroke-width:39.3701; stroke-opacity:1; 
stroke-linecap:round; stroke-linejoin:round;">
</g>
<g style="fill:#000000; fill-opacity:1.0; 
stroke:#000000; stroke-width:0; stroke-opacity:1; 
stroke-linecap:round; stroke-linejoin:round;">
<circle cx="46535.4" cy="43425.2" r="393.701" /> 
</g>
<g style="fill:#000000; fill-opacity:1.0; 
stroke:#000000; stroke-width:39.3701; stroke-opacity:1; 
stroke-linecap:round; stroke-linejoin:round;">
</g>
<g style="fill:#000000; fill-opacity:1.0; 
stroke:#000000; stroke-width:0; stroke-opacity:1; 
stroke-linecap:round; stroke-linejoin:round;">
<circle cx="49448.8" cy="35944.9" r="393.701" /> 
</g>
<g style="fill:#000000; fill-opacity:1.0; 
stroke:#000000; stroke-width:39.3701; stroke-opacity:1; 
stroke-linecap:round; stroke-linejoin:round;">
</g>
<g style="fill:#000000; fill-opacity:1.0; 
stroke:#000000; stroke-width:118.11; stroke-opacity:1; 
stroke-linecap:round; stroke-linejoin:round;">
</g>
<g style="fill:#000000; fill-opacity:0.0; 
stroke:#000000; stroke-width:118.11; stroke-opacity:1; 
stroke-linecap:round; stroke-linejoin:round;">
<path d="M48661 43700
L49448 43700
" />
</g>
<g style="fill:#000000; fill-opacity:0.0; 
stroke:#000000; stroke-width:157.48; stroke-opacity:1; 
stroke-linecap:round; stroke-linejoin:round;">
<path d="M49448 34251
L49448 33267
" />
<path d="M49448 33267
L49409 33228
" />
<path d="M50314 36811
L50314 35078
" />
<path d="M49488 34251
L49448 34251
" />
<path d="M49448 34251
L48858 34251
" />
<path d="M50314 35078
L49488 34251
" />
<path d="M49881 43700
L50314 43700
" />
<path d="M49881 41732
L50314 41732
" />
<path d="M49881 39763
L50314 39763
" />
<path d="M40551 36850
L40157 36850
" />
<path d="M40157 36850
L40118 36811
" />
<path d="M40551 39763
L40118 39763
" />
<path d="M40551 41732
L40118 41732
" />
<path d="M40118 42716
L40551 42716
" />
<path d="M45354 44330
L45354 41751
" />
<path d="M45354 41751
L45137 41535
" />
<path d="M45137 40905
L45137 41535
" />
<path d="M44114 39478
L44478 39478
" />
<path d="M45137 40137
L45137 40905
" />
<path d="M44478 39478
L45137 40137
" />
<path d="M40551 36141
L40866 35826
" />
<path d="M42401 34251
L42086 34251
" />
<path d="M42480 34330
L42401 34251
" />
<path d="M42480 35551
L42480 34330
" />
<path d="M42204 35826
L42480 35551
" />
<path d="M40866 35826
L42204 35826
" />
<path d="M50314 36811
L50314 36850
" />
<path d="M50314 36850
L49881 37283
" />
<path d="M49881 37283
L49881 39763
" />
<path d="M49881 39763
L49881 41732
" />
<path d="M49881 41732
L49881 43700
" />
<path d="M49881 43700
L49881 44173
" />
<path d="M49881 44173
L49724 44330
" />
<path d="M49724 44330
L45354 44330
" />
<path d="M45354 44330
L40748 44330
" />
<path d="M40748 44330
L40551 44133
" />
<path d="M40551 44133
L40551 42716
" />
<path d="M40551 42716
L40551 41732
" />
<path d="M40551 41732
L40551 39763
" />
<path d="M40551 39763
L40551 36850
" />
<path d="M40551 36850
L40551 36141
" />
</g>
<g style="fill:#000000; fill-opacity:0.0; 
stroke:#000000; stroke-width:118.11; stroke-opacity:1; 
stroke-linecap:round; stroke-linejoin:round;">
<path d="M48661 42716
L49448 42716
" />
</g>
<g style="fill:#000000; fill-opacity:0.0; 
stroke:#000000; stroke-width:157.48; stroke-opacity:1; 
stroke-linecap:round; stroke-linejoin:round;">
<path d="M48425 33937
L48425 33385
" />
<path d="M48425 33385
L48228 33188
" />
<path d="M48858 35236
L48858 35157
" />
<path d="M48858 35157
L48425 34724
" />
<path d="M48425 34724
L48425 33937
" />
<path d="M44114 38966
L44616 38966
" />
<path d="M44488 36811
L44488 33543
" />
<path d="M44842 37165
L44488 36811
" />
<path d="M44842 38740
L44842 37165
" />
<path d="M44616 38966
L44842 38740
" />
<path d="M44153 41535
L44153 41614
" />
<path d="M44153 41614
L44862 42322
" />
<path d="M44389 40905
L44389 41299
" />
<path d="M44389 41299
L44153 41535
" />
<path d="M44114 38966
L43710 38966
" />
<path d="M43582 41003
L44153 41535
" />
<path d="M43582 39055
L43582 41003
" />
<path d="M43710 38966
L43582 39055
" />
</g>
<g style="fill:#000000; fill-opacity:0.0; 
stroke:#000000; stroke-width:118.11; stroke-opacity:1; 
stroke-linecap:round; stroke-linejoin:round;">
<path d="M48661 41732
L49448 41732
" />
<path d="M48661 40748
L49448 40748
" />
<path d="M40984 42716
L41889 42716
" />
<path d="M40984 43700
L41889 43700
" />
<path d="M48661 39763
L49448 39763
" />
<path d="M48661 38779
L49448 38779
" />
<path d="M42952 34251
L44055 34251
" />
<path d="M42913 35236
L44055 35236
" />
<path d="M46811 34251
L47992 34251
" />
<path d="M46811 35236
L47992 35236
" />
<path d="M40984 36811
L41889 36811
" />
<path d="M40984 37795
L41889 37795
" />
<path d="M40984 39763
L41889 39763
" />
<path d="M40984 38779
L41889 38779
" />
<path d="M40984 41732
L41889 41732
" />
<path d="M40984 40748
L41889 40748
" />
<path d="M48661 36811
L49448 36811
" />
<path d="M48661 37795
L49448 37795
" />
<path d="M47795 42716
L47795 43700
" />
<path d="M46437 38966
L46998 38966
" />
<path d="M47322 42716
L47795 42716
" />
<path d="M47047 42440
L47322 42716
" />
<path d="M47047 39015
L47047 42440
" />
<path d="M46998 38966
L47047 39015
" />
<path d="M47795 40748
L47795 41732
" />
<path d="M46437 38710
L47135 38710
" />
<path d="M47440 40748
L47795 40748
" />
<path d="M47322 40629
L47440 40748
" />
<path d="M47322 38897
L47322 40629
" />
<path d="M47135 38710
L47322 38897
" />
<path d="M44114 37687
L43651 37687
" />
<path d="M42322 42244
L42322 38425
" />
<path d="M42322 38425
L42519 38228
" />
<path d="M42519 38228
L43110 38228
" />
<path d="M43110 38228
L43622 37716
" />
<path d="M42322 42244
L42755 42677
" />
<path d="M43651 37687
L43622 37716
" />
<path d="M42755 42716
L42755 42677
" />
<path d="M42755 42716
L42755 43700
" />
<path d="M44104 37677
L44114 37687
" />
<path d="M47795 38779
L47795 39763
" />
<path d="M46437 38454
L47470 38454
" />
<path d="M47470 38454
L47795 38779
" />
<path d="M44921 35236
L44921 34251
" />
<path d="M46437 37687
L45836 37687
" />
<path d="M44921 36771
L44921 35236
" />
<path d="M45836 37687
L44921 36771
" />
<path d="M45944 35236
L45944 34251
" />
<path d="M46437 37431
L46437 36751
" />
<path d="M45944 36259
L45944 35236
" />
<path d="M46437 36751
L45944 36259
" />
<path d="M44114 37431
L42755 37431
" />
<path d="M42755 37431
L42755 37440
" />
<path d="M42755 37795
L42755 37440
" />
<path d="M42755 37440
L42755 36811
" />
<path d="M44114 37942
L43750 37942
" />
<path d="M43464 38228
L42913 38779
" />
<path d="M43750 37942
L43464 38228
" />
<path d="M42755 38779
L42913 38779
" />
<path d="M42755 38779
L42755 39763
" />
<path d="M44114 38710
L43533 38710
" />
<path d="M43533 38710
L43307 38937
" />
<path d="M42755 40748
L42755 41732
" />
<path d="M43307 40196
L42755 40748
" />
<path d="M43307 39212
L43307 40196
" />
<path d="M43307 39212
L43307 38937
" />
<path d="M47795 37795
L47795 36811
" />
<path d="M46437 38198
L47627 38198
" />
<path d="M47795 38031
L47795 37795
" />
<path d="M47627 38198
L47795 38031
" />
<path d="M45846 42322
L45846 40334
" />
<path d="M45846 40334
L45629 40118
" />
<path d="M45629 40118
L45000 39488
" />
<path d="M44734 39222
L44114 39222
" />
<path d="M45000 39488
L44734 39222
" />
<path d="M46437 39222
L45974 39222
" />
<path d="M46535 40629
L46535 43425
" />
<path d="M45866 39960
L46535 40629
" />
<path d="M45866 39330
L45866 39960
" />
<path d="M45974 39222
L45866 39330
" />
<path d="M49527 35944
L49448 35944
" />
</g>
<g style="fill:#000000; fill-opacity:0.0; 
stroke:#000000; stroke-width:157.48; stroke-opacity:1; 
stroke-linecap:round; stroke-linejoin:round;">
<path d="M46437 37942
L47017 37942
" />
<path d="M47755 35944
L49527 35944
" />
</g>
<g style="fill:#000000; fill-opacity:0.0; 
stroke:#000000; stroke-width:118.11; stroke-opacity:1; 
stroke-linecap:round; stroke-linejoin:round;">
<path d="M49527 35944
L49606 35944
" />
</g>
<g style="fill:#000000; fill-opacity:0.0; 
stroke:#000000; stroke-width:157.48; stroke-opacity:1; 
stroke-linecap:round; stroke-linejoin:round;">
<path d="M47204 36496
L47755 35944
" />
<path d="M47204 37755
L47204 36496
" />
<path d="M47017 37942
L47204 37755
" />
</g>
<g style="fill:#000000; fill-opacity:1.0; 
stroke:#000000; stroke-width:196.85; stroke-opacity:1; 
stroke-linecap:round; stroke-linejoin:round;">
<polyline style="fill-rule:evenodd;"
points="50935,48966
39616,48966
39616,36633
39661,36633
39661,36988
39676,37068
39723,37142
39795,37191
39881,37208
40255,37208
40255,39365
39881,39365
39801,39380
39727,39428
39678,39500
39661,39586
39661,39940
39676,40021
39723,40094
39795,40144
39881,40161
40255,40161
40255,41334
39881,41334
39801,41349
39727,41396
39678,41469
39661,41555
39661,41909
39676,41989
39723,42063
39795,42112
39881,42130
40255,42130
40255,42318
39881,42318
39801,42333
39727,42381
39678,42453
39661,42539
39661,42893
39676,42973
39723,43047
39795,43097
39881,43114
40255,43114
40255,44133
40278,44246
40342,44342
40539,44539
40635,44603
40748,44625
49724,44625
49837,44603
49933,44539
50090,44382
50154,44286
50177,44173
50177,44098
50551,44098
50631,44083
50705,44036
50754,43963
50771,43877
50771,43523
50756,43443
50709,43369
50637,43320
50551,43302
50177,43302
50177,42130
50551,42130
50631,42115
50705,42067
50754,41995
50771,41909
50771,41555
50756,41474
50709,41401
50637,41351
50551,41334
50177,41334
50177,40161
50551,40161
50631,40146
50705,40099
50754,40026
50771,39940
50771,39586
50756,39506
50709,39432
50637,39383
50551,39365
50177,39365
50177,37405
50373,37208
50551,37208
50631,37193
50705,37146
50754,37074
50771,36988
50771,36633
50756,36553
50709,36479
50637,36430
50610,36425
50610,35078
50587,34965
50523,34869
49744,34090
49744,33750
49754,33745
49926,33574
50019,33350
50019,33107
49927,32883
49755,32711
49531,32618
49288,32618
49064,32710
48892,32882
48799,33106
48799,33349
48891,33573
49063,33745
49153,33782
49153,33865
49094,33854
48622,33854
48541,33869
48468,33916
48424,33980
48386,33920
48314,33871
48228,33854
47755,33854
47675,33869
47601,33916
47561,33976
47241,33976
47205,33920
47133,33871
47047,33854
46574,33854
46494,33869
46420,33916
46377,33980
46339,33920
46266,33871
46181,33854
45708,33854
45628,33869
45554,33916
45505,33988
45487,34074
45487,34429
45502,34509
45550,34583
45622,34632
45669,34641
45669,34845
45628,34853
45554,34900
45505,34973
45487,35059
45487,35413
45502,35493
45550,35567
45622,35616
45669,35626
45669,36259
45690,36365
45750,36454
46161,36866
46161,37142
46140,37146
46066,37194
46017,37266
45999,37352
45999,37411
45950,37411
45196,36657
45196,35626
45237,35619
45311,35571
45360,35499
45378,35413
45378,35059
45363,34978
45315,34905
45243,34855
45196,34846
45196,34642
45237,34634
45311,34587
45360,34515
45378,34429
45378,34074
45363,33994
45315,33920
45243,33871
45157,33854
44685,33854
44604,33869
44531,33916
44487,33980
44449,33920
44377,33871
44291,33854
43818,33854
43738,33869
43664,33916
43624,33976
43382,33976
43347,33920
43274,33871
43188,33854
42716,33854
42636,33869
42562,33916
42519,33980
42481,33920
42408,33871
42322,33854
41850,33854
41770,33869
41696,33916
41647,33988
41629,34074
41629,34429
41644,34509
41692,34583
41764,34632
41850,34649
42185,34649
42185,35428
42082,35531
40866,35531
40753,35553
40659,35616
40657,35617
40342,35932
40278,36028
40255,36141
40255,36413
39881,36413
39801,36428
39727,36475
39678,36547
39661,36633
39616,36633
39616,31742
50935,31742
50935,48966
" /> 
<polyline style="fill-rule:evenodd;"
points="43733,39057
43716,39143
43716,39301
43725,39352
43716,39399
43716,39557
43725,39608
43716,39655
43716,39812
43731,39893
43778,39966
43851,40016
43937,40033
44330,40033
44410,40018
44484,39971
44512,39930
44842,40260
44842,40548
44821,40552
44747,40599
44698,40671
44680,40757
44680,41053
44694,41127
44688,41131
44639,41203
44621,41289
44621,41781
44636,41861
44684,41935
44756,41984
44842,42002
45059,42002
45059,44035
43146,44035
43195,43963
43212,43877
43212,43523
43197,43443
43150,43369
43078,43320
43031,43310
43031,43107
43072,43099
43146,43051
43195,42979
43212,42893
43212,42539
43197,42459
43150,42385
43078,42335
42992,42318
42787,42318
42598,42130
42992,42130
43072,42115
43146,42067
43195,41995
43212,41909
43212,41555
43197,41474
43150,41401
43078,41351
43031,41342
43031,41138
43072,41130
43146,41083
43195,41011
43212,40925
43212,40680
43501,40391
43561,40302
43582,40196
43582,39051
43647,38986
43782,38986
43733,39057
" /> 
<polyline style="fill-rule:evenodd;"
points="44526,35567
44599,35616
44645,35626
44645,36771
44666,36877
44726,36966
45641,37881
45641,37881
45667,37899
45731,37941
45836,37962
45836,37962
45999,37962
45999,38021
46009,38072
45999,38120
45999,38277
46009,38328
45999,38375
45999,38533
46009,38584
45999,38631
45999,38789
46009,38840
45999,38887
45999,38946
45974,38946
45974,38946
45868,38967
45779,39027
45671,39135
45611,39225
45608,39242
45590,39330
45590,39688
44929,39027
44839,38967
44734,38946
44485,38946
44534,38875
44551,38789
44551,38631
44541,38580
44551,38533
44551,38375
44541,38324
44551,38277
44551,38120
44541,38069
44551,38021
44551,37864
44541,37813
44551,37765
44551,37608
44541,37557
44551,37509
44551,37352
44536,37272
44488,37198
44416,37148
44330,37131
43937,37131
43856,37146
43843,37155
43131,37155
43146,37146
43195,37074
43212,36988
43212,36633
43197,36553
43150,36479
43078,36430
42992,36413
42519,36413
42439,36428
42365,36475
42322,36539
42284,36479
42211,36430
42125,36413
41653,36413
41573,36428
41499,36475
41458,36535
41414,36535
41378,36479
41306,36430
41220,36413
40846,36413
40846,36264
40988,36122
42204,36122
42317,36099
42413,36035
42689,35759
42753,35664
42759,35634
43149,35634
43229,35619
43303,35571
43344,35511
43624,35511
43660,35567
43733,35616
43818,35634
44291,35634
44371,35619
44445,35571
44488,35508
44526,35567
" /> 
<polyline style="fill-rule:evenodd;"
points="48463,34583
48536,34632
48622,34649
49094,34649
49174,34634
49248,34587
49275,34547
49365,34547
50019,35201
50019,35728
49966,35599
49794,35427
49570,35334
49327,35334
49103,35427
48931,35598
48910,35649
47755,35649
47642,35672
47547,35736
46995,36287
46931,36383
46909,36496
46909,37633
46895,37647
46834,37647
46834,37608
46825,37557
46834,37509
46834,37352
46819,37272
46772,37198
46712,37157
46712,36751
46701,36698
46691,36646
46631,36557
46220,36145
46220,35626
46261,35619
46335,35571
46378,35508
46416,35567
46488,35616
46574,35634
47047,35634
47127,35619
47201,35571
47242,35511
47561,35511
47597,35567
47670,35616
47755,35634
48228,35634
48308,35619
48382,35571
48431,35499
48449,35413
48449,35059
48434,34978
48386,34905
48314,34855
48228,34838
47755,34838
47675,34853
47601,34900
47561,34960
47241,34960
47205,34905
47133,34855
47047,34838
46574,34838
46494,34853
46420,34900
46377,34964
46339,34905
46266,34855
46220,34846
46220,34642
46261,34634
46335,34587
46378,34523
46416,34583
46488,34632
46574,34649
47047,34649
47127,34634
47201,34587
47242,34527
47561,34527
47597,34583
47670,34632
47755,34649
48228,34649
48308,34634
48382,34587
48425,34523
48463,34583
" /> 
</g>
<g style="fill:#FFFFFF; fill-opacity:1.0; 
stroke:#FFFFFF; stroke-width:196.85; stroke-opacity:1; 
stroke-linecap:round; stroke-linejoin:round;">
</g>
<g style="fill:#FFFFFF; fill-opacity:1.0; 
stroke:#FFFFFF; stroke-width:0; stroke-opacity:1; 
stroke-linecap:round; stroke-linejoin:round;">
<circle cx="49409.4" cy="33228.3" r="68.8976" /> 
</g>
<g style="fill:#FFFFFF; fill-opacity:1.0; 
stroke:#FFFFFF; stroke-width:39.3701; stroke-opacity:1; 
stroke-linecap:round; stroke-linejoin:round;">
</g>
<g style="fill:#FFFFFF; fill-opacity:1.0; 
stroke:#FFFFFF; stroke-width:0; stroke-opacity:1; 
stroke-linecap:round; stroke-linejoin:round;">
<circle cx="48228.3" cy="33189" r="68.8976" /> 
</g>
<g style="fill:#FFFFFF; fill-opacity:1.0; 
stroke:#FFFFFF; stroke-width:39.3701; stroke-opacity:1; 
stroke-linecap:round; stroke-linejoin:round;">
</g>
<g style="fill:#FFFFFF; fill-opacity:1.0; 
stroke:#FFFFFF; stroke-width:0; stroke-opacity:1; 
stroke-linecap:round; stroke-linejoin:round;">
<circle cx="46535.4" cy="43425.2" r="68.8976" /> 
</g>
<g style="fill:#FFFFFF; fill-opacity:1.0; 
stroke:#FFFFFF; stroke-width:39.3701; stroke-opacity:1; 
stroke-linecap:round; stroke-linejoin:round;">
</g>
<g style="fill:#FFFFFF; fill-opacity:1.0; 
stroke:#FFFFFF; stroke-width:0; stroke-opacity:1; 
stroke-linecap:round; stroke-linejoin:round;">
<circle cx="49448.8" cy="35944.9" r="68.8976" /> 
</g>
<g style="fill:#FFFFFF; fill-opacity:1.0; 
stroke:#FFFFFF; stroke-width:39.3701; stroke-opacity:1; 
stroke-linecap:round; stroke-linejoin:round;">
</g>
<g style="fill:#000000; fill-opacity:1.0; 
stroke:#000000; stroke-width:39.3701; stroke-opacity:1; 
stroke-linecap:round; stroke-linejoin:round;">
</g> 
</svg>
